<svg width="4703" height="5223" viewBox="0 0 4703 5223" fill="none" xmlns="http://www.w3.org/2000/svg">
<path d="M1 1H4702V5223H1V1Z" fill="white"/>
<mask id="mask0_1_3" style="mask-type:luminance" maskUnits="userSpaceOnUse" x="0" y="0" width="4703" height="5223">
<path d="M0.319824 0.471191H4702.75V5223H0.319824V0.471191Z" fill="white"/>
</mask>
<g mask="url(#mask0_1_3)">
<path d="M4750.36 586.794C4745.86 585.715 4723.49 574.156 4700.66 561.11C4653.85 534.361 4628.61 523.043 4522.43 481.186C4481.42 465.02 4391.94 424.78 4323.59 391.761C4255.24 358.742 4173.22 322.021 4141.32 310.161C4109.42 298.299 4052.57 277.181 4014.98 263.23C3977.39 249.28 3911.21 222.429 3867.92 203.559C3763.29 157.948 3739.81 150.471 3693.11 147.869C3659.45 145.994 3650.75 147 3618.55 156.462C3598.5 162.354 3547.13 182.885 3504.4 202.086C3331.82 279.626 3231.79 309.894 3116.89 319.333C3036.36 325.949 2963.81 319.376 2701.82 281.703C2420.94 241.32 2403.93 236.777 2076.3 114.623C1853.24 31.4556 1722.4 16.6636 1517.06 51.4014C1470.2 59.3305 1438.79 67.8197 1374.15 90.0338C1191.72 152.72 1132.79 166.487 930.231 193.751C866.066 202.387 779.435 215.697 737.725 223.328C612.567 246.225 501.511 263.524 398.603 276.155C290.234 289.457 266.33 292.962 150.057 312.602C-59.9168 348.068 -76.2152 348.365 -106.774 317.302C-117.049 306.861 -117.127 306.217 -116.72 237.566C-116.223 172.336 -113.784 123.183 -100.618 -74.6362C-94.6881 -163.681 -89.2381 -187.445 -74.2775 -189.548C-69.3644 -190.237 -65.3477 -189.226 -65.3477 -187.298C-65.3477 -185.373 -51.8322 -188.336 -35.3146 -193.885C-5.65161 -203.848 -3.91649 -203.963 106.56 -203.312C172.711 -202.941 265.797 -199.321 334.396 -194.499C435.436 -187.398 489.366 -186.293 752.773 -185.926C949.137 -185.647 1077.69 -187.115 1119.39 -190.101C1220.86 -197.366 1796.42 -199.082 2734.96 -194.916C3294.08 -192.435 3679.21 -192.44 3836.87 -194.916C4038.3 -198.101 4112.41 -197.671 4275.96 -192.37C4709.4 -178.323 4700.27 -178.995 4742.65 -157.998C4753.65 -152.546 4768.26 -141.524 4775.11 -133.506C4787.27 -119.269 4787.54 -118.038 4786.39 -81.0985C4785.22 -42.897 4783.02 -17.7072 4770.74 99.7818C4762.88 174.853 4764.69 234.868 4776.93 305.542C4788.58 372.835 4794.34 432.484 4793.46 476.925C4792.96 498.148 4793.96 516.621 4795.32 517.979C4799.87 522.298 4797.86 536.513 4791.6 544.383C4788.27 548.567 4785.52 557.552 4785.52 564.351C4785.52 583.849 4772.57 592.128 4750.4 586.811L4750.36 586.794Z" fill="#1C262A"/>
<path d="M3557.08 1361.32C3469.02 1353.87 3397.66 1321.03 3294.33 1240.39C3265.97 1218.25 3229.58 1191.72 3213.47 1181.44C3179.43 1159.71 3113.21 1127.6 3067.28 1110.56C3049.65 1104.02 3009.12 1086.54 2977.23 1071.72C2931.88 1050.64 2910.65 1037.94 2879.89 1013.49C2816.39 963.039 2766.65 903.018 2715.34 814.91C2660.78 721.221 2635.18 689.69 2592.28 663.32C2555.14 640.487 2521.71 631.923 2469.79 631.936C2426.52 631.936 2406.91 634.879 2291.66 658.574C2252.02 666.723 2228.22 669.262 2190.17 669.404C2129.27 669.635 2106.89 665.113 2033.6 637.814C1960.49 610.582 1927.44 603.8 1881.56 606.606C1811.24 610.907 1765.75 627.174 1576.33 715.76C1352.51 820.44 1330.43 829.359 1282.67 834.411C1249.56 837.916 1201.48 831.295 1156.51 817.041C1096.88 798.139 979.004 745.778 868.731 689.209C688.68 596.845 599.821 558.734 516.618 538.184C462.869 524.909 379.777 524.793 339.559 537.952C268.648 561.126 137.77 666.386 65.828 758.098C30.528 803.104 -59.7126 898.182 -76.6047 908.175C-84.8727 913.068 -97.4584 904.366 -102.291 890.403C-110.794 865.875 -115.366 798.585 -114.338 713.029C-113.019 602.736 -113.211 546.619 -115.122 475.916C-117.373 392.568 -111.841 384.794 -31.4023 358.941C8.81186 346.015 29.5931 342.402 131.379 330.646C170.108 326.174 252.129 314.722 313.644 305.202C375.159 295.681 480.482 281.656 547.695 274.035C698.971 256.881 655.691 263.558 1018.76 201.36C1203.17 169.768 1308.97 145.833 1450.74 103.639C1619.91 53.2914 1666.92 49.282 1814.76 72.5934C1905.09 86.8331 1951.64 103.221 2072.12 163.183C2109.72 181.897 2157.49 203.422 2178.28 211.019C2249.78 237.145 2351.64 257.762 2469.78 270.021C2502.82 273.446 2554.08 278.778 2583.7 281.866C2613.31 284.953 2673.36 293.737 2717.13 301.384C2760.9 309.032 2873.67 325.845 2967.75 338.75C3150.04 363.753 3201.88 367.091 3247.19 356.746C3260.48 353.714 3294.65 346.514 3323.13 340.746C3409.25 323.306 3449.03 305.419 3540.72 242.917C3567.99 224.321 3604.19 202.561 3621.17 194.563C3650.13 180.908 3654.31 180.034 3689.51 180.26C3735.63 180.539 3752.35 185.779 3849.78 230.336C3889.36 248.434 3970.2 282.244 4029.43 305.465C4163.18 357.905 4201.93 375.049 4289.09 420.341C4371.03 462.922 4406.62 478.108 4522.36 519.867C4623.78 556.462 4695.82 588.022 4742.27 616.208C4795.9 648.756 4794.9 647.035 4796.98 710.121C4797.96 739.744 4796.49 837.173 4794.05 926.63C4791.45 1016.08 4788.2 1136.9 4786.8 1195.1C4783.91 1314.66 4782.15 1322.8 4759.41 1321.96C4752.06 1321.68 4730.2 1323.43 4710.83 1325.82C4675.66 1330.15 4551.24 1338.55 4410.51 1346.1C4366.27 1348.47 4261.79 1349.09 4153.67 1347.63C4009.17 1345.67 3951.66 1346.44 3876.13 1351.33C3823.72 1354.73 3747.29 1358.5 3706.28 1359.72C3665.27 1360.93 3623.33 1362.5 3613.08 1363.21C3602.83 1363.92 3577.62 1363.07 3557.06 1361.34L3557.08 1361.32Z" fill="#303D3F"/>
<path d="M-94.8843 1721.08C-95.3806 1720.54 -95.8598 1663.66 -96.4524 1594.68C-97.3313 1490.28 -98.9944 1459.09 -106.583 1408.51C-118.145 1331.39 -122.524 1179.73 -115.283 1107.33C-108.526 1039.75 -93.5293 977.701 -75.6301 943.285C-56.2019 905.92 -29.6326 879.137 40.2769 826.448C102.787 779.336 146.298 738.93 199.685 678.416C218.295 657.32 243.165 632.903 254.96 624.156C266.746 615.408 278.064 604.921 280.105 600.852C287.634 585.823 384.113 561.963 437.348 561.963C473.324 561.963 518.124 575.812 570.505 603.121C637.04 637.812 688.765 662.275 753.932 689.872C787.472 704.076 843.806 729.553 879.121 746.495C920.738 766.459 967.375 784.9 1011.68 798.917C1049.27 810.809 1099.45 826.825 1123.19 834.509C1237.11 871.386 1299.3 877.72 1359.65 858.586C1434.98 834.701 1605.83 755.274 1716.63 692.624C1767.35 663.949 1783.41 657.033 1810.27 652.284C1863.41 642.89 1988.58 685.467 2007.84 719.489L2016.03 733.965L2005.85 744.212C2000.25 749.848 1973.86 765.128 1947.2 778.167C1919.62 791.654 1879.39 815.971 1853.91 834.57C1789.84 881.309 1745.23 910.108 1693.1 938.371C1668.04 951.959 1622.37 978.418 1591.62 997.17C1493.35 1057.08 1451.06 1072.99 1353.19 1086.91C1261.95 1099.88 1234.47 1105.98 1148.04 1132.43C1059.48 1159.54 1013.1 1169.52 930.894 1179.16C815.467 1192.69 755.315 1205.33 707.2 1226.15C688.784 1234.12 637.451 1267.52 566.53 1317.66C484.982 1375.32 431.588 1409.59 368.631 1444.7C272.582 1498.26 206.967 1538.82 134.357 1589.5C107.561 1608.21 53.9901 1641.43 15.3106 1663.33C-23.3654 1685.24 -59.7711 1707.41 -65.5901 1712.6C-74.1243 1720.22 -92.4812 1725.52 -94.893 1721.07L-94.8843 1721.08Z" fill="#697B80"/>
<path d="M-71.7934 2195.2C-81.9596 2186.93 -83.5124 2181.55 -90.7527 2129.55C-95.1077 2098.4 -100.283 2035 -102.29 1988.66C-104.294 1942.31 -107.236 1901.35 -108.822 1897.63C-113.127 1887.59 -103.444 1826.45 -93.6773 1801.76C-81.3292 1770.53 -53.9008 1734.72 -25.7047 1713.02C-2.83728 1695.42 75.8607 1649.92 280.566 1535.97C379.254 1481.04 523.379 1394.83 558.111 1369.96C571.782 1360.17 601.609 1337.77 624.394 1320.18C715.075 1250.16 743.755 1238.88 882.835 1218.59C919.358 1213.26 987.061 1201.03 1033.29 1191.4C1079.52 1181.78 1151.83 1169.32 1193.98 1163.73C1307.67 1148.63 1362.76 1135.18 1450.81 1101.04C1597.38 1044.21 1715.1 981.006 1833.31 895.682C2003.71 772.691 2129.24 710.889 2255.49 687.838C2416.02 658.528 2512.33 670.515 2576.32 727.772C2607.01 755.236 2625.17 782.359 2666.55 862.573C2686.14 900.539 2708.98 941.307 2717.3 953.167C2753.45 1004.7 2796.44 1033.18 2905.47 1077.86C3054.15 1138.77 3074.96 1150.9 3153.41 1222.38C3184.21 1250.44 3221.49 1281.97 3236.26 1292.46C3295.39 1334.43 3382.97 1376.89 3454.29 1398.16C3546.37 1425.63 3626.71 1427.85 3775.3 1407.05C3829.17 1399.5 3905.6 1391.25 3945.15 1388.71C4019.13 1383.96 4182.76 1385.77 4278.02 1392.4C4328.29 1395.9 4399.87 1393.73 4524.49 1384.94C4576.73 1381.25 4597.2 1378.22 4611.29 1372.07C4626.68 1365.36 4641.8 1363.59 4702.43 1361.39C4742.41 1359.94 4778.31 1360.3 4782.22 1362.19C4792.1 1366.97 4796.66 1387.46 4799.53 1439.96C4800.9 1464.75 4806.78 1522.07 4812.64 1567.34C4822.94 1646.88 4823.21 1654.57 4820.66 1796.61C4819.19 1877.44 4817.14 1946.56 4816.06 1950.2C4814.99 1953.84 4807.77 1958.79 4800.06 1961.19C4787.15 1965.23 4781.82 1963.8 4732.94 1943.31C4649.38 1908.28 4624.21 1899.44 4554.54 1880.64C4518.65 1870.96 4451.08 1850.85 4404.38 1835.96C4306.05 1804.62 4272.93 1799.01 4219.57 1804.66C4169.45 1809.96 4132.49 1820.03 4053.58 1849.88C4016.7 1863.83 3965.26 1880.4 3939.26 1886.7C3886.03 1899.59 3872.72 1904.26 3799.58 1935.68C3641.09 2003.77 3468.2 2037.85 3427.1 2009.11C3395.88 1987.27 3213.34 1920.1 3089.48 1884.87C2937.16 1841.55 2855.62 1823.55 2800.87 1821.18C2743.73 1818.7 2720.71 1822.06 2632.86 1845.7C2509.93 1878.78 2427.2 1891.93 2339.36 1892.35C2250.27 1892.77 2209.8 1878.5 2151.34 1826.04C2134.5 1810.93 2103.91 1780.05 2083.35 1757.42C2012.53 1679.46 1955.26 1627.98 1920.97 1611.49C1908.09 1605.29 1909.31 1605.38 1604.07 1588.87C1290.61 1571.92 1071.02 1558.28 996.774 1551.16C925.202 1544.29 794.718 1578.62 710.993 1626.33C663.276 1653.53 644.978 1668.14 562.262 1745.07C398.205 1897.66 332.095 1950.65 212.227 2025.69C119.248 2083.89 83.7903 2109.08 20.3997 2161.94C-31.7864 2205.47 -50.7488 2212.32 -71.7795 2195.2L-71.7934 2195.2Z" fill="#6E8186"/>
<path d="M-59.3614 2724.34C-75.7224 2717.21 -84.0228 2707.96 -95.2107 2684.39C-107.937 2657.6 -110.031 2589.63 -101.029 2495.48C-95.6071 2438.77 -95.1572 2418.96 -98.8759 2399.61C-112.844 2326.73 -69.8772 2271.47 42.2437 2218.1C108.523 2186.56 167.743 2144.36 267.884 2057.31C350.721 1985.31 385.119 1958.47 483.289 1889.26C627.559 1787.55 639.691 1778.47 688.339 1735.88C780.75 1654.98 825.493 1629.21 910.977 1607.67C958.332 1595.74 962.168 1595.39 1050.81 1595.2C1140.63 1595.01 1314.03 1605.47 1535.47 1624.48C1585.6 1628.78 1672.28 1633.97 1728.1 1636.01C1852.11 1640.55 1876.47 1645.44 1921.93 1674.93C1949.17 1692.61 1966.88 1709.65 2011.92 1761.56C2099.82 1862.87 2142.79 1902.27 2192.04 1926.72C2208.84 1935.05 2215.61 1935.92 2260.39 1935.48C2295.46 1935.16 2326.58 1931.94 2366.03 1924.64C2402.92 1917.81 2448.03 1912.95 2498.59 1910.35C2585.63 1905.87 2613.59 1901.33 2680.85 1880.73C2722.72 1867.9 2733.51 1866.13 2769.91 1866.07C2808.16 1866.01 2815.15 1867.27 2861.05 1882.63C2888.39 1891.77 2926.6 1904.54 2945.97 1911C2965.33 1917.47 3052.95 1939.51 3140.66 1959.99C3374.71 2014.64 3389.21 2019.62 3389.21 2045.44C3389.21 2065.09 3381.2 2066.36 3244.23 2068.47C3102.69 2070.65 3068.83 2074.35 2968.75 2098.57C2857.54 2125.49 2801.77 2149.29 2741.84 2195.39C2687.29 2237.35 2567.65 2353.69 2514.89 2416.08C2449.31 2493.63 2436.86 2506.42 2399.74 2534.44C2362.1 2562.85 2340.5 2573.52 2317.88 2574.86C2308.28 2575.43 2298.45 2577.06 2296.04 2578.47C2288.34 2582.97 2257.25 2572.56 2227.29 2555.45C2143.46 2507.59 2081.43 2480.66 1784.01 2363.05C1621.92 2298.95 1600.81 2291.55 1561.7 2285.13C1532.07 2280.27 1526.28 2280.24 1520.76 2284.95C1517.24 2287.97 1501.12 2295.6 1484.96 2301.9C1468.81 2308.21 1434.43 2325.25 1408.56 2339.78C1307.96 2396.28 950.82 2561.6 864.068 2591.83C791.917 2616.97 666.567 2635.18 603.411 2629.69C587.462 2628.31 544.589 2623.56 508.134 2619.14C424.973 2609.06 333.442 2608.42 276.155 2617.51C190.781 2631.06 152.05 2643.77 83.387 2680.75C-2.65432 2727.08 -32.2998 2736.14 -59.3805 2724.33L-59.3614 2724.34Z" fill="#91A6AB"/>
<path d="M635.862 4735.93C594.93 4733.63 581.485 4731.31 565.506 4723.79C525.754 4705.07 520.243 4673.54 545.395 4608.67C553.757 4587.12 566.283 4554.49 573.241 4536.17C580.193 4517.84 604.552 4464.94 627.373 4418.59C650.187 4372.25 680.667 4308.32 695.101 4276.53C728.842 4202.23 785.839 4085.58 819.783 4021.39C889.174 3890.15 1007.47 3701.96 1085.98 3597.9C1117.04 3556.74 1159.15 3500.13 1179.57 3472.11C1225.04 3409.71 1282.37 3353.63 1327.62 3327.28C1345.33 3316.96 1392.93 3294.84 1433.38 3278.12C1597.9 3210.11 1640.1 3182.98 1804.94 3039.23C1901.49 2955.02 1978.95 2891.65 2048.7 2839.8C2199.39 2727.78 2367.56 2600.24 2405.48 2569.22C2470.21 2516.25 2588.69 2403.08 2635.76 2349.25C2780.54 2183.71 2836.86 2158.68 3174.03 2110.11C3210.01 2104.93 3301.79 2089.85 3364.59 2078.8C3388.51 2074.6 3434.18 2066.6 3466.08 2061.03C3508.11 2053.7 3528.07 2048.32 3538.6 2041.48C3549.21 2034.59 3564.86 2030.41 3596.59 2025.99C3620.5 2022.67 3652.22 2018.25 3667.08 2016.18C3681.95 2014.11 3712.7 2007.28 3735.43 2000.99C3897.06 1956.31 3944.73 1941.95 3999.5 1921.51C4033.63 1908.77 4096.26 1886.61 4138.7 1872.26C4212.87 1847.18 4217.38 1846.16 4255.21 1845.99C4298.6 1845.81 4306.33 1847.72 4391.91 1879.86C4463.31 1906.68 4569.87 1939.18 4634.24 1953.76C4663.86 1960.48 4703.01 1969.33 4721.24 1973.45C4741.25 1977.96 4760.84 1985.34 4770.7 1992.08C4794.41 2008.29 4810.78 2037.98 4813.47 2069.67C4816.94 2110.68 4797.06 2481.83 4789.36 2519.47C4784.62 2542.66 4775.49 2556.97 4765.44 2556.97C4761.33 2556.97 4730.64 2529.94 4696.16 2495.93C4627.96 2428.7 4592.73 2399.28 4518.25 2347.4C4490.92 2328.35 4452.55 2300.25 4433.01 2284.96C4360.83 2228.5 4341.34 2213.93 4303.64 2188.31C4282.45 2173.91 4259.24 2159.25 4252.08 2155.75C4232.22 2146.03 4185.11 2147.5 4136.57 2159.33C4057.7 2178.57 3900.65 2220.59 3863.75 2232.32C3813.47 2248.32 3752.51 2278.48 3726 2300.47C3699.48 2322.47 3635.83 2395.46 3551.85 2500.14C3468.64 2603.87 3367.21 2726.37 3326.33 2772.53C3271.36 2834.59 3133.74 2970.44 3078.8 3016.87C3050.34 3040.92 3008.94 3076.72 2986.81 3096.43C2964.67 3116.14 2922.7 3150.67 2893.56 3173.18C2834.1 3219.08 2804.7 3247.79 2781.68 3282.44C2738.2 3347.86 2667.21 3440.3 2638.99 3468.24C2587.5 3519.2 2542.9 3539.15 2442.06 3556.33C2416.62 3560.67 2372.17 3572.01 2343.28 3581.53C2298.19 3596.4 2283.16 3603.75 2237.01 3633.46C2163.45 3680.83 2138.68 3707.58 2081.34 3801.55C2065.64 3827.29 2035.39 3874.81 2014.13 3907.14C1877.2 4115.4 1782.22 4322.82 1750.77 4482.28C1734.34 4565.58 1704.73 4664.61 1688.15 4691.75C1673.62 4715.51 1662.26 4718.01 1583.82 4714.69C1540.75 4712.86 1506.7 4713.52 1481.94 4716.65C1452.82 4720.34 1431.28 4720.32 1382.52 4716.51C1325.04 4712.04 1315.61 4712.3 1259.02 4719.94C1190.09 4729.24 1147.39 4730.21 1085.68 4723.85C1050.86 4720.27 1033.4 4720.63 987.132 4725.89C861.69 4740.15 761.818 4743.01 635.897 4735.93L635.862 4735.93Z" fill="#CCDBDF"/>
<path d="M-41.5973 4747.88C-75.1278 4742.13 -91.9645 4732.19 -94.8846 4716.42C-96.2605 4708.87 -99.679 4697.41 -102.482 4690.94C-108.707 4676.48 -112.077 4146.13 -106.446 4069.73C-104.44 4042.79 -100.942 3996.05 -98.6488 3965.87C-96.3482 3935.7 -93.485 3858.09 -92.2775 3793.43C-91.0548 3728.76 -88.0195 3644.99 -85.5143 3607.26C-82.0424 3554.82 -82.2376 3509.63 -86.3937 3415.22C-90.8961 3312.8 -90.8961 3277.08 -86.3937 3205.54C-83.3613 3158.12 -79.5745 3062 -77.9791 2991.94C-74.7989 2852.25 -73.076 2841.48 -48.4317 2806.28C-41.2158 2795.97 -25.7941 2780.81 -14.1643 2772.58C40.4019 2734 198.371 2674.39 283.343 2660.33C329.131 2652.75 400.785 2654.81 458.503 2665.36C515.705 2675.82 655.218 2674.87 731.906 2663.51C878.68 2641.76 976.559 2609.84 1073.3 2552.17C1127.56 2519.83 1168.88 2500.83 1216.91 2486.12C1294.42 2462.39 1324.19 2445.41 1394.7 2384.7C1420.38 2362.58 1442.53 2347.64 1465.89 2336.66C1496.84 2322.12 1502.63 2320.73 1532.23 2320.73C1571.17 2320.73 1591.1 2327 1695.02 2371.93C1734.9 2389.16 1815.98 2421.48 1875.22 2443.75C1943.64 2469.46 2029.77 2506.17 2111.34 2544.39C2234.95 2602.3 2266.69 2620.87 2266.69 2635.27C2266.69 2644.88 2240.57 2666.28 2185.91 2701.45C2130.93 2736.83 1987.22 2835.61 1928.88 2878.13C1908.26 2893.15 1853.27 2939.24 1806.68 2980.55C1714.89 3061.92 1684.87 3085.01 1612.06 3130.24C1543.24 3172.99 1476.11 3206.86 1384.35 3245.12C1339.92 3263.64 1291.26 3286.52 1276.22 3295.97C1241.43 3317.83 1199.09 3359.97 1162.06 3409.62C997.614 3630.07 996.545 3631.64 929.791 3748.35C906.98 3788.23 863.622 3867.59 833.44 3924.72C803.257 3981.84 762.589 4055.91 743.071 4089.33C673.865 4207.78 642.231 4275.37 597.242 4400.91C567.862 4482.9 483.664 4702.33 477.696 4712.49C475.493 4716.21 466.795 4718.73 453.946 4719.37C442.786 4719.92 414.087 4723.85 390.161 4728.09C321.036 4740.35 283.089 4743.4 172.681 4745.56C115.728 4746.67 48.6177 4748.4 23.5549 4749.41C-1.50477 4750.41 -30.858 4749.73 -41.6753 4747.86L-41.5973 4747.88Z" fill="#A1B9BD"/>
<path d="M4673.62 4776.47C4567.84 4760.46 4412.75 4747.55 4257.31 4741.81C4133.91 4737.26 4029.85 4727.03 3940.41 4710.65C3885.85 4700.66 3820.22 4693.38 3745.71 4689.05C3705.84 4686.73 3646.19 4682.31 3613.16 4679.21C3477.57 4666.52 3430.46 4664.31 3290.05 4664.05C3078.85 4663.63 2908.4 4673.08 2764.14 4693.14C2667.79 4706.54 2573.16 4709.48 2329.81 4706.65C1981.79 4702.6 1962.84 4702.58 1891.75 4706.28C1834.44 4709.25 1822.45 4708.84 1804.71 4703.26C1752.78 4686.94 1731.67 4635.87 1753.45 4579.23C1758 4567.38 1767.14 4538.28 1773.75 4514.57C1805.13 4401.9 1841.18 4318.05 1959.92 4081.56C2061.67 3878.9 2133.1 3773.78 2216.4 3704.1C2273.51 3656.33 2324.09 3634.9 2440.62 3609.08C2619.48 3569.45 2648.65 3549.02 2746.68 3394.79C2827.29 3267.96 2844 3250.9 2996.71 3139.62C3106.03 3059.95 3260.9 2913.06 3368.8 2786.7C3410.9 2737.4 3467.47 2671.26 3494.5 2639.73C3521.53 2608.2 3570.74 2543.6 3603.84 2496.18C3672.53 2397.8 3702.98 2361.2 3742.23 2329.89C3824.95 2263.91 3913.8 2235.11 4123.31 2206.38C4221 2192.99 4235.4 2193.22 4266.02 2208.66C4290.01 2220.75 4382.61 2280.03 4439.56 2319.75C4481.26 2348.84 4537.64 2393.78 4580.51 2432.1C4600.95 2450.38 4633.53 2476.62 4652.89 2490.42C4705.24 2527.73 4757.27 2578.19 4769.93 2603.95C4775.76 2615.81 4785.16 2648.43 4790.8 2676.46C4800.62 2725.18 4801.1 2734.41 4801.57 2888.09C4802.06 2976.47 4804.16 3106.1 4806.7 3176.15C4812.8 3343.63 4808.02 4742.9 4801.31 4750.54C4798.86 4753.33 4792.72 4755.61 4787.66 4755.61C4782.59 4755.61 4775.09 4759.13 4770.97 4763.43C4766.86 4767.73 4756.78 4773.01 4748.58 4775.16C4734.1 4778.97 4694.6 4779.67 4673.6 4776.49L4673.62 4776.47Z" fill="#E1E8EA"/>
<path d="M201.747 5615.05C172.166 5611.31 122.632 5609.37 60.5841 5609.53C-30.3419 5609.76 -35.9054 5609.34 -53.3055 5601.01C-85.7085 5585.52 -97.9136 5559.95 -101.438 5500.17C-103.253 5469.54 -102.164 5458.77 -95.3561 5439.42C-78.4025 5391.25 -79.4796 5272.8 -98.3899 5104.33C-112.426 4979.32 -114.305 4954.74 -113.55 4906.24C-112.863 4863.34 -111.792 4857.02 -101.295 4836.76C-87.2716 4809.65 -68.074 4793.98 -37.0643 4784.35C-17.3267 4778.21 1.27488 4776.97 81.618 4776.42C273.904 4775.09 686.501 4767.33 692.575 4764.93C696 4763.57 867.543 4761.02 1073.72 4759.27C1458.74 4756 1494.73 4754.75 1802.8 4734.1C2021.3 4719.45 2064.76 4718.65 2233.61 4726.21C2341.86 4731.06 2417.16 4732.29 2498.72 4730.54C2626.61 4727.79 2660.83 4725.29 2804.89 4708.14C2917.04 4694.79 2939.86 4694.12 3216.23 4695.89C3414.63 4697.16 3507.43 4701.33 3584.02 4712.39C3784.18 4741.29 3881.1 4752.33 4099.77 4771.1C4301.77 4788.44 4526.39 4802.69 4632.08 4804.86C4727.92 4806.84 4768.44 4810.95 4783.78 4820.25C4797.66 4828.67 4798.03 4843.89 4785.25 4880.67C4774.77 4910.83 4774.04 4916.24 4778.09 4933.84C4783.86 4958.86 4782.94 5103.44 4776.82 5129.66C4773.05 5145.84 4774.22 5167.41 4783.26 5249.34C4797.49 5378.15 4801.8 5515.08 4792.31 5536.42C4788.74 5544.51 4784.06 5551.12 4781.97 5551.12C4779.86 5551.12 4773.3 5558.08 4767.35 5566.58C4753.61 5586.23 4728.76 5600 4692.05 5608.32C4654.12 5616.92 4501.56 5616.95 4275.81 5608.41C4185.82 5605 4052.53 5600.36 3979.63 5598.08C3759.56 5591.21 3618.16 5577.38 3356.2 5537.12C3130.15 5502.38 3065.29 5497.43 2919.17 5503.84C2797.27 5509.18 2755.58 5512.78 2631.27 5528.68C2542.85 5540 2524.04 5541.14 2426.22 5541.14C2364.92 5541.14 2302.45 5539.09 2281.23 5536.38C2260.73 5533.76 2204.8 5527.16 2156.96 5521.72C1827.76 5484.24 1820.83 5484.21 1632.93 5519.81C1278.78 5586.92 1002.22 5609.48 622.174 5602.27C569.882 5601.28 537.565 5602.64 506.189 5607.2C396.851 5623.08 287.452 5625.9 201.719 5615.06L201.747 5615.05Z" fill="#C6DBDF"/>
</g>
</svg>
