<svg width="4871" height="4871" viewBox="0 0 4871 4871" fill="none" xmlns="http://www.w3.org/2000/svg">
<path d="M1 0H4870V4871H1V0Z" fill="white"/>
<path d="M0.38623 0.499512V1236.86L28.5712 1234.25C44.0729 1232.82 103.429 1229.55 160.477 1226.98C296.196 1220.88 357.662 1215.34 439.988 1201.77C583.175 1178.16 627.967 1178.47 840.845 1204.54C1158.79 1243.48 1288.11 1232.8 1416.35 1157.01C1439.15 1143.55 1495.66 1105.42 1541.95 1072.29C1690.2 966.186 1744.55 939.385 1820.01 935.16C1871.02 932.305 1904.71 940.173 1959.81 967.81C2010.56 993.262 2070.57 1038.32 2275.49 1204.81C2512.2 1397.13 2553.33 1427.27 2699.4 1515.47C2792.95 1571.95 2835.57 1602.2 2881.04 1644.37C2912 1673.08 2920.1 1678.05 2954.19 1689.25C3007.7 1706.84 3101.04 1748.46 3188.23 1793.63C3318.27 1860.99 3378.17 1897.72 3494.2 1981.22C3580.87 2043.59 3622.25 2067.23 3673.68 2083.75C3719.46 2098.46 3793.78 2113.54 3864.91 2122.57C3917.69 2129.26 3966.41 2127.6 3988.31 2118.35C4008.68 2109.74 4025.57 2091.22 4044.14 2057.13C4110.66 1935.02 4127.28 1910.28 4194.04 1833.96C4239.32 1782.2 4288.8 1738.83 4360.39 1688.16C4389.35 1667.65 4427.98 1640.31 4446.22 1627.4C4501.07 1588.57 4540.83 1546.49 4607.11 1457.11C4657.24 1389.5 4688.91 1354.34 4708.81 1344.19C4734.78 1330.94 4770.36 1332.61 4816.67 1349.25C4837.75 1356.82 4858.55 1364.14 4862.89 1365.5C4870.38 1367.85 4870.78 1333.35 4870.78 684.236V0.520273H2435.6L0.38623 0.499512ZM3734.79 482.994C4000.35 482.994 4216 698.661 4216 964.241C4216 1229.82 4000.36 1445.49 3734.79 1445.49C3469.22 1445.49 3253.54 1229.82 3253.54 964.241C3253.54 698.665 3469.21 482.994 3734.79 482.994Z" fill="#E1E8EA"/>
<path d="M0.386254 1868.34V1287.54L130.039 1282.1C292.37 1275.29 342.328 1270.78 446.843 1253.51C562.19 1234.44 627.349 1232.73 776.047 1244.88C990.232 1262.37 1163.79 1261.66 1269.84 1242.85C1323.75 1233.29 1394.56 1209.22 1444.23 1183.57C1466.45 1172.09 1528.63 1133.37 1582.42 1097.51C1727.88 1000.54 1774.95 979.018 1841.59 979.018C1907.16 979.018 1986.92 1013.32 2070.3 1077.38C2091.38 1093.58 2159.37 1150.68 2221.37 1204.27C2462.91 1413.04 2518.5 1454.9 2676.84 1547.21C2748.87 1589.21 2839.06 1647.95 2844.15 1656.19C2845.85 1658.94 2840.44 1659.19 2829.49 1656.88C2801.03 1650.86 2657.7 1652.55 2622.73 1659.31C2507.91 1681.52 2371.62 1726.01 2203.31 1796.22C2173.55 1808.64 2045.7 1864.02 1919.21 1919.3C1181.07 2241.82 1017.79 2308.25 849.223 2354.47C680.369 2400.79 543.709 2418.43 237.091 2433.49C157.721 2437.39 74.5189 2442.47 52.197 2444.79C29.8743 2447.11 9.07263 2449.04 5.97342 2449.08C1.49279 2449.15 0.336426 2330.04 0.336426 1868.36L0.386254 1868.34Z" fill="#CCDBDF"/>
<path d="M4818.91 3127.68C4796.58 3121.79 4739.86 3108.66 4692.86 3098.51C4422.61 3040.14 4249.94 3035.31 4073.28 3081.18C4014.53 3096.43 4011.73 3096.42 3867.36 3080.51C3825.2 3075.86 3761.27 3069.81 3725.31 3067.07C3594.36 3057.07 3453 3032.6 3351.01 3002.29C3288.24 2983.63 3231.96 2964.18 3078.17 2907.99C2788.34 2802.08 2717.16 2759.18 2546.05 2587.24C2469.71 2510.54 2439.56 2483.33 2415.27 2469.21C2327.39 2418.13 2220.66 2391.06 2156.72 2403.64C2141.99 2406.54 2110.94 2417.11 2087.71 2427.14C1996.83 2466.36 1957.02 2480.46 1885.76 2498.66C1791.39 2522.77 1743.65 2540.05 1599.03 2602.43C1314.26 2725.27 1145.64 2781.37 956.395 2816.27C766.847 2851.22 609.253 2857.59 388.181 2839.22C266.567 2829.12 135.462 2819.9 64.6151 2816.48L0.352051 2813.37V2468.59L33.0464 2465.72C51.0287 2464.14 144.887 2458.79 241.616 2453.83C338.346 2448.87 444.886 2442.71 478.373 2440.14C773.596 2417.51 979.501 2368.55 1283.34 2248.73C1431.21 2190.42 1542.43 2139.73 1756.84 2032.9C2085.04 1869.39 2188.99 1820.94 2329.55 1765.9C2540.01 1683.51 2671.27 1659.49 2783.96 1682.75C2923.5 1711.55 3075.53 1785.11 3375.8 1969.12C3555.29 2079.12 3597.88 2098.09 3714.02 2119.78C3841.16 2143.54 3964.16 2152.9 4001.61 2141.69C4031.66 2132.68 4063.5 2098.71 4108.28 2027.87C4159.86 1946.27 4195.18 1902.13 4263.91 1833.37C4314.15 1783.12 4338.17 1763.9 4471.65 1667.14C4526.51 1627.36 4576.01 1575.72 4638.35 1493.2C4665.52 1457.23 4697.76 1417.15 4710 1404.13C4730.64 1382.17 4733.76 1380.46 4753.02 1380.54C4766.83 1380.59 4789.66 1387.02 4821.14 1399.7L4868.49 1418.79L4869.63 2279.01C4870.53 2965.9 4869.63 3139.16 4865.12 3138.82C4862.01 3138.59 4841.2 3133.58 4818.88 3127.69L4818.91 3127.68Z" fill="#91A6AB"/>
<path d="M0.386238 3458.77V2844.97L46.6098 2847.86C162.131 2855.06 245.443 2861.55 311.55 2868.5C332.633 2870.71 364.086 2873.74 381.45 2875.22C398.812 2876.7 431.282 2879.87 453.604 2882.27C475.926 2884.66 538.863 2888.53 593.462 2890.87C873.287 2902.85 1130.42 2859.35 1391.62 2755.86C1471.97 2724.03 1535.97 2694 1671.22 2624.68C1809.87 2553.61 1829.42 2545.56 1916.77 2523.57C1951.54 2514.81 1999.8 2500.34 2024.02 2491.42C2136.63 2449.92 2153.98 2444.67 2178.55 2444.69C2228.62 2444.72 2335.88 2478.46 2389.75 2511.14C2433.65 2537.78 2461.8 2562.31 2524.09 2628.26C2638.14 2748.99 2728.57 2816.33 2869.94 2885.78C2981.03 2940.36 3228.31 3030.84 3360.07 3065.14C3443.57 3086.87 3600.74 3111.5 3702.8 3118.84C3770.91 3123.75 3903.45 3135.36 3904.66 3136.53C3905.31 3137.16 3877.88 3150.04 3843.7 3165.17C3809.53 3180.29 3708.7 3227.4 3619.64 3269.85C3027.54 3552.1 2800.17 3612.49 2328.97 3612.57C2261.65 3612.57 2155.12 3609.33 2092.21 3605.35C1893.77 3592.79 1806.03 3602.84 1686.97 3651.79C1618.76 3679.84 1563.04 3715.25 1423.16 3819.45C1385.01 3847.86 1343.4 3874.41 1318.03 3886.51L1276.04 3906.55L1203.04 3890.37C979.756 3840.87 879.568 3824.53 799.533 3824.56C733.894 3824.56 682.893 3832.68 601.754 3855.96C500.753 3884.93 247.322 3976.18 70.4284 4047.27C35.7924 4061.18 5.85847 4072.57 3.91201 4072.57C1.96556 4072.57 0.369629 3796.36 0.369629 3458.77L0.386238 3458.77Z" fill="#6E8186"/>
<path d="M4083.79 4286.11C3939.15 4279.02 3850.26 4267.45 3699.41 4236.11C3585.53 4212.45 3597.92 4213.12 3348.7 4217.3L3258.5 4218.81L3179.58 4201.64C2958.18 4153.46 2869.08 4140.34 2532.45 4106.3C2159.01 4068.55 1852.4 4024.09 1551.59 3964.08C1478.42 3949.48 1403.7 3934.14 1385.53 3929.99L1352.51 3922.45L1379.61 3907.43C1394.52 3899.17 1441.16 3869.22 1483.25 3840.88C1655.31 3725.03 1735.08 3684.24 1838.26 3659.38C1908.74 3642.39 1972.01 3639.46 2112.51 3646.66C2255.93 3654.01 2573.08 3654.93 2671.31 3648.28C2988.79 3626.78 3189.07 3556.9 3638.31 3310.9C3871.64 3183.13 3950.88 3146.39 4061.23 3114.79C4148.25 3089.88 4187.77 3085.17 4295.74 3086.89C4395.97 3088.49 4429.53 3092.61 4539.11 3116.84C4605.87 3131.59 4753.4 3171 4826.74 3193.66L4870.71 3207.25V4229.42L4813.21 4243.3C4748.56 4258.9 4669.49 4272.7 4602.39 4280.11C4560.07 4284.78 4152.78 4289.5 4083.76 4286.12L4083.79 4286.11Z" fill="#303D3F"/>
<path d="M1.5194 4482.64L2.67189 4094.52L56.7867 4072.1C156.158 4030.91 303.96 3974.51 385.991 3946.46C544.924 3892.12 627.688 3872.19 715.955 3866.98C790.798 3862.57 839.063 3870.82 1150.37 3941.25C1420.71 4002.4 1651.92 4043.92 1892.22 4074.43C2013.89 4089.88 2269.91 4116.71 2367.99 4124.28C2386.59 4125.71 2408.91 4127.79 2417.59 4128.89C2426.27 4129.98 2450.63 4132.01 2471.71 4133.39C2492.79 4134.77 2517.14 4136.79 2525.82 4137.87C2534.5 4138.96 2561.9 4140.99 2586.7 4142.38C2611.51 4143.78 2638.9 4145.83 2647.59 4146.93C2656.27 4148.04 2677.57 4150.12 2694.93 4151.57C2831.26 4162.91 2952.65 4180.68 3096.47 4210.33C3291.5 4250.55 3280.04 4249.18 3430.02 4250.05L3565.31 4250.83L3671.29 4276.42C3840.12 4317.2 3931.74 4330.35 4104.19 4338.55C4225.32 4344.32 4529.2 4344.26 4597.99 4338.38C4664.04 4332.81 4772.79 4315.02 4829.11 4300.57L4870.82 4289.87V4870.67H0.520996L1.67349 4482.55L1.5194 4482.64Z" fill="#1C262A"/>
</svg>
